<svg xmlns="http://www.w3.org/2000/svg" height="28" viewBox="0 0 166.969 165.25" fill="#171a21">
  <path d="M119.767,95.963l-0.074,0L72.13,127.1c0.062,0.864.1,1.733,0.1,2.613A36,36,0,1,1,41.126,93.97l31.109-45.8A47.533,47.533,0,1,1,119.767,95.963ZM9.629,129.709a26.665,26.665,0,1,0,26.665-26.764A26.714,26.714,0,0,0,9.629,129.709Zm110.138-115.2a33.746,33.746,0,1,0,33.621,33.745A33.683,33.683,0,0,0,119.767,14.509Zm0,58.182a24.437,24.437,0,1,1,24.347-24.436A24.392,24.392,0,0,1,119.767,72.691Zm-83.473,76.8A19.782,19.782,0,1,1,56,129.709,19.746,19.746,0,0,1,36.294,149.491Z" transform="translate(-0.344 -0.531)"/>
</svg>
