<svg xmlns="http://www.w3.org/2000/svg" width="32" height="28" viewBox="0 0 34 28" fill="none" stroke="#1da1f2" stroke-width="1">
    <path d="M34 3.318a13.973 13.973 0 0 1-4.006 1.116A7.07 7.07 0 0 0 33.063.525a13.761 13.761 0 0 1-4.431 1.714A6.929 6.929 0 0 0 23.539 0a7.019 7.019 0 0 0-6.974 7.066 6.99 6.99 0 0 0 .18 1.611A19.692 19.692 0 0 1 2.363 1.291a7.13 7.13 0 0 0 2.169 9.435 6.751 6.751 0 0 1-3.17-.882v.087a7.045 7.045 0 0 0 5.6 6.927 6.94 6.94 0 0 1-1.837.248 6.505 6.505 0 0 1-1.311-.131 7 7 0 0 0 6.52 4.907A13.882 13.882 0 0 1 0 24.806 19.331 19.331 0 0 0 10.678 28c12.846 0 19.864-10.77 19.864-20.11 0-.306-.007-.612-.022-.911A14.3 14.3 0 0 0 34 3.318z"/>
</svg>
