<svg xmlns="http://www.w3.org/2000/svg" width="40" height="28" viewBox="0 0 40 28">
  <defs>
    <style>
      .cls-1 {
        fill: none;
        stroke: #cc181e;
        stroke-width: 1px;
        fill-rule: evenodd;
      }
    </style>
  </defs>
  <path class="cls-1" d="M20,0h0S11.6,0,6,.4A5.74,5.74,0,0,0,2,2,8.58,8.58,0,0,0,.4,6,60,60,0,0,0,0,12.48V15.5A60,60,0,0,0,.4,22,8.58,8.58,0,0,0,2,26a6.8,6.8,0,0,0,4.42,1.7C9.6,28,20,28,20,28h0s8.4,0,14-.42a5.74,5.74,0,0,0,4-1.68,8.6,8.6,0,0,0,1.6-4,59.991,59.991,0,0,0,.4-6.4V12.48A59.974,59.974,0,0,0,39.6,6,8.58,8.58,0,0,0,38,2,5.741,5.741,0,0,0,34,.4C28.4,0,20,0,20,0M15.82,8.3l10.64,5.5L15.82,19.52V8.3Z"/>
</svg>
